<?xml version="1.0" encoding="utf-8" standalone="no"?>
<!DOCTYPE svg PUBLIC "-//W3C//DTD SVG 1.1//EN"
  "http://www.w3.org/Graphics/SVG/1.1/DTD/svg11.dtd">
<svg xmlns:xlink="http://www.w3.org/1999/xlink" width="619.242188pt" height="506.144125pt" viewBox="0 0 619.242188 506.144125" xmlns="http://www.w3.org/2000/svg" version="1.1">
 <metadata>
  <rdf:RDF xmlns:dc="http://purl.org/dc/elements/1.1/" xmlns:cc="http://creativecommons.org/ns#" xmlns:rdf="http://www.w3.org/1999/02/22-rdf-syntax-ns#">
   <cc:Work>
    <dc:type rdf:resource="http://purl.org/dc/dcmitype/StillImage"/>
    <dc:date>2022-08-06T23:13:26.897001</dc:date>
    <dc:format>image/svg+xml</dc:format>
    <dc:creator>
     <cc:Agent>
      <dc:title>Matplotlib v3.5.2, https://matplotlib.org/</dc:title>
     </cc:Agent>
    </dc:creator>
   </cc:Work>
  </rdf:RDF>
 </metadata>
 <defs>
  <style type="text/css">*{stroke-linejoin: round; stroke-linecap: butt}</style>
 </defs>
 <g id="figure_1">
  <g id="patch_1">
   <path d="M 0 506.144125 
L 619.242188 506.144125 
L 619.242188 0 
L 0 0 
L 0 506.144125 
z
" style="fill: none"/>
  </g>
  <g id="axes_1">
   <g id="patch_2">
    <path d="M 54.042188 460.845375 
L 612.042187 460.845375 
L 612.042187 25.965375 
L 54.042188 25.965375 
L 54.042188 460.845375 
z
" style="fill: none"/>
   </g>
   <g id="PathCollection_1">
    <defs>
     <path id="m23254a64e9" d="M 0 3 
C 0.795609 3 1.55874 2.683901 2.12132 2.12132 
C 2.683901 1.55874 3 0.795609 3 0 
C 3 -0.795609 2.683901 -1.55874 2.12132 -2.12132 
C 1.55874 -2.683901 0.795609 -3 0 -3 
C -0.795609 -3 -1.55874 -2.683901 -2.12132 -2.12132 
C -2.683901 -1.55874 -3 -0.795609 -3 0 
C -3 0.795609 -2.683901 1.55874 -2.12132 2.12132 
C -1.55874 2.683901 -0.795609 3 0 3 
z
" style="stroke: #1f77b4"/>
    </defs>
    <g clip-path="url(#pdb8bb96730)">
     <use xlink:href="#m23254a64e9" x="85.862022" y="369.027292" style="fill: #1f77b4; stroke: #1f77b4"/>
     <use xlink:href="#m23254a64e9" x="100.619047" y="419.062576" style="fill: #1f77b4; stroke: #1f77b4"/>
     <use xlink:href="#m23254a64e9" x="113.531444" y="352.348864" style="fill: #1f77b4; stroke: #1f77b4"/>
     <use xlink:href="#m23254a64e9" x="127.827311" y="192.235954" style="fill: #1f77b4; stroke: #1f77b4"/>
     <use xlink:href="#m23254a64e9" x="141.662022" y="185.564583" style="fill: #1f77b4; stroke: #1f77b4"/>
     <use xlink:href="#m23254a64e9" x="155.95789" y="108.843814" style="fill: #1f77b4; stroke: #1f77b4"/>
     <use xlink:href="#m23254a64e9" x="169.792601" y="75.486957" style="fill: #1f77b4; stroke: #1f77b4"/>
     <use xlink:href="#m23254a64e9" x="184.088468" y="155.543412" style="fill: #1f77b4; stroke: #1f77b4"/>
     <use xlink:href="#m23254a64e9" x="198.384336" y="145.536355" style="fill: #1f77b4; stroke: #1f77b4"/>
     <use xlink:href="#m23254a64e9" x="212.219047" y="262.285352" style="fill: #1f77b4; stroke: #1f77b4"/>
     <use xlink:href="#m23254a64e9" x="226.514915" y="339.006121" style="fill: #1f77b4; stroke: #1f77b4"/>
     <use xlink:href="#m23254a64e9" x="240.349626" y="345.677492" style="fill: #1f77b4; stroke: #1f77b4"/>
     <use xlink:href="#m23254a64e9" x="249.572766" y="441.078102" style="fill: #1f77b4; stroke: #1f77b4"/>
     <use xlink:href="#m23254a64e9" x="264.329791" y="397.04705" style="fill: #1f77b4; stroke: #1f77b4"/>
     <use xlink:href="#m23254a64e9" x="277.242188" y="377.700074" style="fill: #1f77b4; stroke: #1f77b4"/>
     <use xlink:href="#m23254a64e9" x="291.538055" y="253.612568" style="fill: #1f77b4; stroke: #1f77b4"/>
     <use xlink:href="#m23254a64e9" x="305.372766" y="181.161479" style="fill: #1f77b4; stroke: #1f77b4"/>
     <use xlink:href="#m23254a64e9" x="319.668634" y="97.502477" style="fill: #1f77b4; stroke: #1f77b4"/>
     <use xlink:href="#m23254a64e9" x="333.503345" y="116.449173" style="fill: #1f77b4; stroke: #1f77b4"/>
     <use xlink:href="#m23254a64e9" x="347.799212" y="163.815911" style="fill: #1f77b4; stroke: #1f77b4"/>
     <use xlink:href="#m23254a64e9" x="362.09508" y="119.117731" style="fill: #1f77b4; stroke: #1f77b4"/>
     <use xlink:href="#m23254a64e9" x="375.929791" y="246.540912" style="fill: #1f77b4; stroke: #1f77b4"/>
     <use xlink:href="#m23254a64e9" x="390.225659" y="262.552206" style="fill: #1f77b4; stroke: #1f77b4"/>
     <use xlink:href="#m23254a64e9" x="404.060369" y="364.090477" style="fill: #1f77b4; stroke: #1f77b4"/>
     <use xlink:href="#m23254a64e9" x="413.28351" y="374.364388" style="fill: #1f77b4; stroke: #1f77b4"/>
     <use xlink:href="#m23254a64e9" x="428.040535" y="322.594548" style="fill: #1f77b4; stroke: #1f77b4"/>
     <use xlink:href="#m23254a64e9" x="440.952931" y="307.917532" style="fill: #1f77b4; stroke: #1f77b4"/>
     <use xlink:href="#m23254a64e9" x="455.248799" y="171.554701" style="fill: #1f77b4; stroke: #1f77b4"/>
     <use xlink:href="#m23254a64e9" x="469.08351" y="188.233129" style="fill: #1f77b4; stroke: #1f77b4"/>
     <use xlink:href="#m23254a64e9" x="483.379378" y="45.732648" style="fill: #1f77b4; stroke: #1f77b4"/>
     <use xlink:href="#m23254a64e9" x="497.214088" y="57.073984" style="fill: #1f77b4; stroke: #1f77b4"/>
     <use xlink:href="#m23254a64e9" x="511.509956" y="84.159735" style="fill: #1f77b4; stroke: #1f77b4"/>
     <use xlink:href="#m23254a64e9" x="525.805824" y="217.85402" style="fill: #1f77b4; stroke: #1f77b4"/>
     <use xlink:href="#m23254a64e9" x="539.640535" y="293.90765" style="fill: #1f77b4; stroke: #1f77b4"/>
     <use xlink:href="#m23254a64e9" x="553.936402" y="377.433219" style="fill: #1f77b4; stroke: #1f77b4"/>
     <use xlink:href="#m23254a64e9" x="567.771113" y="380.768905" style="fill: #1f77b4; stroke: #1f77b4"/>
    </g>
   </g>
   <g id="matplotlib.axis_1">
    <g id="xtick_1">
     <g id="line2d_1">
      <defs>
       <path id="m05d71cdab1" d="M 0 0 
L 0 3.5 
" style="stroke: #000000; stroke-width: 0.8"/>
      </defs>
      <g>
       <use xlink:href="#m05d71cdab1" x="79.405824" y="460.845375" style="stroke: #000000; stroke-width: 0.8"/>
      </g>
     </g>
     <g id="text_1">
      <!-- 0 -->
      <g transform="translate(74.952074 478.483187)scale(0.14 -0.14)">
       <defs>
        <path id="DejaVuSans-30" d="M 2034 4250 
Q 1547 4250 1301 3770 
Q 1056 3291 1056 2328 
Q 1056 1369 1301 889 
Q 1547 409 2034 409 
Q 2525 409 2770 889 
Q 3016 1369 3016 2328 
Q 3016 3291 2770 3770 
Q 2525 4250 2034 4250 
z
M 2034 4750 
Q 2819 4750 3233 4129 
Q 3647 3509 3647 2328 
Q 3647 1150 3233 529 
Q 2819 -91 2034 -91 
Q 1250 -91 836 529 
Q 422 1150 422 2328 
Q 422 3509 836 4129 
Q 1250 4750 2034 4750 
z
" transform="scale(0.015625)"/>
       </defs>
       <use xlink:href="#DejaVuSans-30"/>
      </g>
     </g>
    </g>
    <g id="xtick_2">
     <g id="line2d_2">
      <g>
       <use xlink:href="#m05d71cdab1" x="171.637229" y="460.845375" style="stroke: #000000; stroke-width: 0.8"/>
      </g>
     </g>
     <g id="text_2">
      <!-- 200 -->
      <g transform="translate(158.275979 478.483187)scale(0.14 -0.14)">
       <defs>
        <path id="DejaVuSans-32" d="M 1228 531 
L 3431 531 
L 3431 0 
L 469 0 
L 469 531 
Q 828 903 1448 1529 
Q 2069 2156 2228 2338 
Q 2531 2678 2651 2914 
Q 2772 3150 2772 3378 
Q 2772 3750 2511 3984 
Q 2250 4219 1831 4219 
Q 1534 4219 1204 4116 
Q 875 4013 500 3803 
L 500 4441 
Q 881 4594 1212 4672 
Q 1544 4750 1819 4750 
Q 2544 4750 2975 4387 
Q 3406 4025 3406 3419 
Q 3406 3131 3298 2873 
Q 3191 2616 2906 2266 
Q 2828 2175 2409 1742 
Q 1991 1309 1228 531 
z
" transform="scale(0.015625)"/>
       </defs>
       <use xlink:href="#DejaVuSans-32"/>
       <use xlink:href="#DejaVuSans-30" x="63.623047"/>
       <use xlink:href="#DejaVuSans-30" x="127.246094"/>
      </g>
     </g>
    </g>
    <g id="xtick_3">
     <g id="line2d_3">
      <g>
       <use xlink:href="#m05d71cdab1" x="263.868634" y="460.845375" style="stroke: #000000; stroke-width: 0.8"/>
      </g>
     </g>
     <g id="text_3">
      <!-- 400 -->
      <g transform="translate(250.507384 478.483187)scale(0.14 -0.14)">
       <defs>
        <path id="DejaVuSans-34" d="M 2419 4116 
L 825 1625 
L 2419 1625 
L 2419 4116 
z
M 2253 4666 
L 3047 4666 
L 3047 1625 
L 3713 1625 
L 3713 1100 
L 3047 1100 
L 3047 0 
L 2419 0 
L 2419 1100 
L 313 1100 
L 313 1709 
L 2253 4666 
z
" transform="scale(0.015625)"/>
       </defs>
       <use xlink:href="#DejaVuSans-34"/>
       <use xlink:href="#DejaVuSans-30" x="63.623047"/>
       <use xlink:href="#DejaVuSans-30" x="127.246094"/>
      </g>
     </g>
    </g>
    <g id="xtick_4">
     <g id="line2d_4">
      <g>
       <use xlink:href="#m05d71cdab1" x="356.100039" y="460.845375" style="stroke: #000000; stroke-width: 0.8"/>
      </g>
     </g>
     <g id="text_4">
      <!-- 600 -->
      <g transform="translate(342.738789 478.483187)scale(0.14 -0.14)">
       <defs>
        <path id="DejaVuSans-36" d="M 2113 2584 
Q 1688 2584 1439 2293 
Q 1191 2003 1191 1497 
Q 1191 994 1439 701 
Q 1688 409 2113 409 
Q 2538 409 2786 701 
Q 3034 994 3034 1497 
Q 3034 2003 2786 2293 
Q 2538 2584 2113 2584 
z
M 3366 4563 
L 3366 3988 
Q 3128 4100 2886 4159 
Q 2644 4219 2406 4219 
Q 1781 4219 1451 3797 
Q 1122 3375 1075 2522 
Q 1259 2794 1537 2939 
Q 1816 3084 2150 3084 
Q 2853 3084 3261 2657 
Q 3669 2231 3669 1497 
Q 3669 778 3244 343 
Q 2819 -91 2113 -91 
Q 1303 -91 875 529 
Q 447 1150 447 2328 
Q 447 3434 972 4092 
Q 1497 4750 2381 4750 
Q 2619 4750 2861 4703 
Q 3103 4656 3366 4563 
z
" transform="scale(0.015625)"/>
       </defs>
       <use xlink:href="#DejaVuSans-36"/>
       <use xlink:href="#DejaVuSans-30" x="63.623047"/>
       <use xlink:href="#DejaVuSans-30" x="127.246094"/>
      </g>
     </g>
    </g>
    <g id="xtick_5">
     <g id="line2d_5">
      <g>
       <use xlink:href="#m05d71cdab1" x="448.331444" y="460.845375" style="stroke: #000000; stroke-width: 0.8"/>
      </g>
     </g>
     <g id="text_5">
      <!-- 800 -->
      <g transform="translate(434.970194 478.483187)scale(0.14 -0.14)">
       <defs>
        <path id="DejaVuSans-38" d="M 2034 2216 
Q 1584 2216 1326 1975 
Q 1069 1734 1069 1313 
Q 1069 891 1326 650 
Q 1584 409 2034 409 
Q 2484 409 2743 651 
Q 3003 894 3003 1313 
Q 3003 1734 2745 1975 
Q 2488 2216 2034 2216 
z
M 1403 2484 
Q 997 2584 770 2862 
Q 544 3141 544 3541 
Q 544 4100 942 4425 
Q 1341 4750 2034 4750 
Q 2731 4750 3128 4425 
Q 3525 4100 3525 3541 
Q 3525 3141 3298 2862 
Q 3072 2584 2669 2484 
Q 3125 2378 3379 2068 
Q 3634 1759 3634 1313 
Q 3634 634 3220 271 
Q 2806 -91 2034 -91 
Q 1263 -91 848 271 
Q 434 634 434 1313 
Q 434 1759 690 2068 
Q 947 2378 1403 2484 
z
M 1172 3481 
Q 1172 3119 1398 2916 
Q 1625 2713 2034 2713 
Q 2441 2713 2670 2916 
Q 2900 3119 2900 3481 
Q 2900 3844 2670 4047 
Q 2441 4250 2034 4250 
Q 1625 4250 1398 4047 
Q 1172 3844 1172 3481 
z
" transform="scale(0.015625)"/>
       </defs>
       <use xlink:href="#DejaVuSans-38"/>
       <use xlink:href="#DejaVuSans-30" x="63.623047"/>
       <use xlink:href="#DejaVuSans-30" x="127.246094"/>
      </g>
     </g>
    </g>
    <g id="xtick_6">
     <g id="line2d_6">
      <g>
       <use xlink:href="#m05d71cdab1" x="540.562849" y="460.845375" style="stroke: #000000; stroke-width: 0.8"/>
      </g>
     </g>
     <g id="text_6">
      <!-- 1000 -->
      <g transform="translate(522.747849 478.483187)scale(0.14 -0.14)">
       <defs>
        <path id="DejaVuSans-31" d="M 794 531 
L 1825 531 
L 1825 4091 
L 703 3866 
L 703 4441 
L 1819 4666 
L 2450 4666 
L 2450 531 
L 3481 531 
L 3481 0 
L 794 0 
L 794 531 
z
" transform="scale(0.015625)"/>
       </defs>
       <use xlink:href="#DejaVuSans-31"/>
       <use xlink:href="#DejaVuSans-30" x="63.623047"/>
       <use xlink:href="#DejaVuSans-30" x="127.246094"/>
       <use xlink:href="#DejaVuSans-30" x="190.869141"/>
      </g>
     </g>
    </g>
    <g id="text_7">
     <!-- Time [days] -->
     <g transform="translate(291.705 496.032562)scale(0.14 -0.14)">
      <defs>
       <path id="DejaVuSans-54" d="M -19 4666 
L 3928 4666 
L 3928 4134 
L 2272 4134 
L 2272 0 
L 1638 0 
L 1638 4134 
L -19 4134 
L -19 4666 
z
" transform="scale(0.015625)"/>
       <path id="DejaVuSans-69" d="M 603 3500 
L 1178 3500 
L 1178 0 
L 603 0 
L 603 3500 
z
M 603 4863 
L 1178 4863 
L 1178 4134 
L 603 4134 
L 603 4863 
z
" transform="scale(0.015625)"/>
       <path id="DejaVuSans-6d" d="M 3328 2828 
Q 3544 3216 3844 3400 
Q 4144 3584 4550 3584 
Q 5097 3584 5394 3201 
Q 5691 2819 5691 2113 
L 5691 0 
L 5113 0 
L 5113 2094 
Q 5113 2597 4934 2840 
Q 4756 3084 4391 3084 
Q 3944 3084 3684 2787 
Q 3425 2491 3425 1978 
L 3425 0 
L 2847 0 
L 2847 2094 
Q 2847 2600 2669 2842 
Q 2491 3084 2119 3084 
Q 1678 3084 1418 2786 
Q 1159 2488 1159 1978 
L 1159 0 
L 581 0 
L 581 3500 
L 1159 3500 
L 1159 2956 
Q 1356 3278 1631 3431 
Q 1906 3584 2284 3584 
Q 2666 3584 2933 3390 
Q 3200 3197 3328 2828 
z
" transform="scale(0.015625)"/>
       <path id="DejaVuSans-65" d="M 3597 1894 
L 3597 1613 
L 953 1613 
Q 991 1019 1311 708 
Q 1631 397 2203 397 
Q 2534 397 2845 478 
Q 3156 559 3463 722 
L 3463 178 
Q 3153 47 2828 -22 
Q 2503 -91 2169 -91 
Q 1331 -91 842 396 
Q 353 884 353 1716 
Q 353 2575 817 3079 
Q 1281 3584 2069 3584 
Q 2775 3584 3186 3129 
Q 3597 2675 3597 1894 
z
M 3022 2063 
Q 3016 2534 2758 2815 
Q 2500 3097 2075 3097 
Q 1594 3097 1305 2825 
Q 1016 2553 972 2059 
L 3022 2063 
z
" transform="scale(0.015625)"/>
       <path id="DejaVuSans-20" transform="scale(0.015625)"/>
       <path id="DejaVuSans-5b" d="M 550 4863 
L 1875 4863 
L 1875 4416 
L 1125 4416 
L 1125 -397 
L 1875 -397 
L 1875 -844 
L 550 -844 
L 550 4863 
z
" transform="scale(0.015625)"/>
       <path id="DejaVuSans-64" d="M 2906 2969 
L 2906 4863 
L 3481 4863 
L 3481 0 
L 2906 0 
L 2906 525 
Q 2725 213 2448 61 
Q 2172 -91 1784 -91 
Q 1150 -91 751 415 
Q 353 922 353 1747 
Q 353 2572 751 3078 
Q 1150 3584 1784 3584 
Q 2172 3584 2448 3432 
Q 2725 3281 2906 2969 
z
M 947 1747 
Q 947 1113 1208 752 
Q 1469 391 1925 391 
Q 2381 391 2643 752 
Q 2906 1113 2906 1747 
Q 2906 2381 2643 2742 
Q 2381 3103 1925 3103 
Q 1469 3103 1208 2742 
Q 947 2381 947 1747 
z
" transform="scale(0.015625)"/>
       <path id="DejaVuSans-61" d="M 2194 1759 
Q 1497 1759 1228 1600 
Q 959 1441 959 1056 
Q 959 750 1161 570 
Q 1363 391 1709 391 
Q 2188 391 2477 730 
Q 2766 1069 2766 1631 
L 2766 1759 
L 2194 1759 
z
M 3341 1997 
L 3341 0 
L 2766 0 
L 2766 531 
Q 2569 213 2275 61 
Q 1981 -91 1556 -91 
Q 1019 -91 701 211 
Q 384 513 384 1019 
Q 384 1609 779 1909 
Q 1175 2209 1959 2209 
L 2766 2209 
L 2766 2266 
Q 2766 2663 2505 2880 
Q 2244 3097 1772 3097 
Q 1472 3097 1187 3025 
Q 903 2953 641 2809 
L 641 3341 
Q 956 3463 1253 3523 
Q 1550 3584 1831 3584 
Q 2591 3584 2966 3190 
Q 3341 2797 3341 1997 
z
" transform="scale(0.015625)"/>
       <path id="DejaVuSans-79" d="M 2059 -325 
Q 1816 -950 1584 -1140 
Q 1353 -1331 966 -1331 
L 506 -1331 
L 506 -850 
L 844 -850 
Q 1081 -850 1212 -737 
Q 1344 -625 1503 -206 
L 1606 56 
L 191 3500 
L 800 3500 
L 1894 763 
L 2988 3500 
L 3597 3500 
L 2059 -325 
z
" transform="scale(0.015625)"/>
       <path id="DejaVuSans-73" d="M 2834 3397 
L 2834 2853 
Q 2591 2978 2328 3040 
Q 2066 3103 1784 3103 
Q 1356 3103 1142 2972 
Q 928 2841 928 2578 
Q 928 2378 1081 2264 
Q 1234 2150 1697 2047 
L 1894 2003 
Q 2506 1872 2764 1633 
Q 3022 1394 3022 966 
Q 3022 478 2636 193 
Q 2250 -91 1575 -91 
Q 1294 -91 989 -36 
Q 684 19 347 128 
L 347 722 
Q 666 556 975 473 
Q 1284 391 1588 391 
Q 1994 391 2212 530 
Q 2431 669 2431 922 
Q 2431 1156 2273 1281 
Q 2116 1406 1581 1522 
L 1381 1569 
Q 847 1681 609 1914 
Q 372 2147 372 2553 
Q 372 3047 722 3315 
Q 1072 3584 1716 3584 
Q 2034 3584 2315 3537 
Q 2597 3491 2834 3397 
z
" transform="scale(0.015625)"/>
       <path id="DejaVuSans-5d" d="M 1947 4863 
L 1947 -844 
L 622 -844 
L 622 -397 
L 1369 -397 
L 1369 4416 
L 622 4416 
L 622 4863 
L 1947 4863 
z
" transform="scale(0.015625)"/>
      </defs>
      <use xlink:href="#DejaVuSans-54"/>
      <use xlink:href="#DejaVuSans-69" x="57.958984"/>
      <use xlink:href="#DejaVuSans-6d" x="85.742188"/>
      <use xlink:href="#DejaVuSans-65" x="183.154297"/>
      <use xlink:href="#DejaVuSans-20" x="244.677734"/>
      <use xlink:href="#DejaVuSans-5b" x="276.464844"/>
      <use xlink:href="#DejaVuSans-64" x="315.478516"/>
      <use xlink:href="#DejaVuSans-61" x="378.955078"/>
      <use xlink:href="#DejaVuSans-79" x="440.234375"/>
      <use xlink:href="#DejaVuSans-73" x="499.414062"/>
      <use xlink:href="#DejaVuSans-5d" x="551.513672"/>
     </g>
    </g>
   </g>
   <g id="matplotlib.axis_2">
    <g id="ytick_1">
     <g id="line2d_7">
      <defs>
       <path id="m0ab8f658b1" d="M 0 0 
L -3.5 0 
" style="stroke: #000000; stroke-width: 0.8"/>
      </defs>
      <g>
       <use xlink:href="#m0ab8f658b1" x="54.042188" y="422.398262" style="stroke: #000000; stroke-width: 0.8"/>
      </g>
     </g>
     <g id="text_8">
      <!-- −5 -->
      <g transform="translate(26.403125 427.717168)scale(0.14 -0.14)">
       <defs>
        <path id="DejaVuSans-2212" d="M 678 2272 
L 4684 2272 
L 4684 1741 
L 678 1741 
L 678 2272 
z
" transform="scale(0.015625)"/>
        <path id="DejaVuSans-35" d="M 691 4666 
L 3169 4666 
L 3169 4134 
L 1269 4134 
L 1269 2991 
Q 1406 3038 1543 3061 
Q 1681 3084 1819 3084 
Q 2600 3084 3056 2656 
Q 3513 2228 3513 1497 
Q 3513 744 3044 326 
Q 2575 -91 1722 -91 
Q 1428 -91 1123 -41 
Q 819 9 494 109 
L 494 744 
Q 775 591 1075 516 
Q 1375 441 1709 441 
Q 2250 441 2565 725 
Q 2881 1009 2881 1497 
Q 2881 1984 2565 2268 
Q 2250 2553 1709 2553 
Q 1456 2553 1204 2497 
Q 953 2441 691 2322 
L 691 4666 
z
" transform="scale(0.015625)"/>
       </defs>
       <use xlink:href="#DejaVuSans-2212"/>
       <use xlink:href="#DejaVuSans-35" x="83.789062"/>
      </g>
     </g>
    </g>
    <g id="ytick_2">
     <g id="line2d_8">
      <g>
       <use xlink:href="#m0ab8f658b1" x="54.042188" y="355.684549" style="stroke: #000000; stroke-width: 0.8"/>
      </g>
     </g>
     <g id="text_9">
      <!-- 0 -->
      <g transform="translate(38.134688 361.003455)scale(0.14 -0.14)">
       <use xlink:href="#DejaVuSans-30"/>
      </g>
     </g>
    </g>
    <g id="ytick_3">
     <g id="line2d_9">
      <g>
       <use xlink:href="#m0ab8f658b1" x="54.042188" y="288.970837" style="stroke: #000000; stroke-width: 0.8"/>
      </g>
     </g>
     <g id="text_10">
      <!-- 5 -->
      <g transform="translate(38.134688 294.289743)scale(0.14 -0.14)">
       <use xlink:href="#DejaVuSans-35"/>
      </g>
     </g>
    </g>
    <g id="ytick_4">
     <g id="line2d_10">
      <g>
       <use xlink:href="#m0ab8f658b1" x="54.042188" y="222.257124" style="stroke: #000000; stroke-width: 0.8"/>
      </g>
     </g>
     <g id="text_11">
      <!-- 10 -->
      <g transform="translate(29.227188 227.576031)scale(0.14 -0.14)">
       <use xlink:href="#DejaVuSans-31"/>
       <use xlink:href="#DejaVuSans-30" x="63.623047"/>
      </g>
     </g>
    </g>
    <g id="ytick_5">
     <g id="line2d_11">
      <g>
       <use xlink:href="#m0ab8f658b1" x="54.042188" y="155.543412" style="stroke: #000000; stroke-width: 0.8"/>
      </g>
     </g>
     <g id="text_12">
      <!-- 15 -->
      <g transform="translate(29.227188 160.862318)scale(0.14 -0.14)">
       <use xlink:href="#DejaVuSans-31"/>
       <use xlink:href="#DejaVuSans-35" x="63.623047"/>
      </g>
     </g>
    </g>
    <g id="ytick_6">
     <g id="line2d_12">
      <g>
       <use xlink:href="#m0ab8f658b1" x="54.042188" y="88.8297" style="stroke: #000000; stroke-width: 0.8"/>
      </g>
     </g>
     <g id="text_13">
      <!-- 20 -->
      <g transform="translate(29.227188 94.148606)scale(0.14 -0.14)">
       <use xlink:href="#DejaVuSans-32"/>
       <use xlink:href="#DejaVuSans-30" x="63.623047"/>
      </g>
     </g>
    </g>
    <g id="text_14">
     <!-- Temperature [˚C] -->
     <g transform="translate(19.491563 303.817562)rotate(-90)scale(0.14 -0.14)">
      <defs>
       <path id="DejaVuSans-70" d="M 1159 525 
L 1159 -1331 
L 581 -1331 
L 581 3500 
L 1159 3500 
L 1159 2969 
Q 1341 3281 1617 3432 
Q 1894 3584 2278 3584 
Q 2916 3584 3314 3078 
Q 3713 2572 3713 1747 
Q 3713 922 3314 415 
Q 2916 -91 2278 -91 
Q 1894 -91 1617 61 
Q 1341 213 1159 525 
z
M 3116 1747 
Q 3116 2381 2855 2742 
Q 2594 3103 2138 3103 
Q 1681 3103 1420 2742 
Q 1159 2381 1159 1747 
Q 1159 1113 1420 752 
Q 1681 391 2138 391 
Q 2594 391 2855 752 
Q 3116 1113 3116 1747 
z
" transform="scale(0.015625)"/>
       <path id="DejaVuSans-72" d="M 2631 2963 
Q 2534 3019 2420 3045 
Q 2306 3072 2169 3072 
Q 1681 3072 1420 2755 
Q 1159 2438 1159 1844 
L 1159 0 
L 581 0 
L 581 3500 
L 1159 3500 
L 1159 2956 
Q 1341 3275 1631 3429 
Q 1922 3584 2338 3584 
Q 2397 3584 2469 3576 
Q 2541 3569 2628 3553 
L 2631 2963 
z
" transform="scale(0.015625)"/>
       <path id="DejaVuSans-74" d="M 1172 4494 
L 1172 3500 
L 2356 3500 
L 2356 3053 
L 1172 3053 
L 1172 1153 
Q 1172 725 1289 603 
Q 1406 481 1766 481 
L 2356 481 
L 2356 0 
L 1766 0 
Q 1100 0 847 248 
Q 594 497 594 1153 
L 594 3053 
L 172 3053 
L 172 3500 
L 594 3500 
L 594 4494 
L 1172 4494 
z
" transform="scale(0.015625)"/>
       <path id="DejaVuSans-75" d="M 544 1381 
L 544 3500 
L 1119 3500 
L 1119 1403 
Q 1119 906 1312 657 
Q 1506 409 1894 409 
Q 2359 409 2629 706 
Q 2900 1003 2900 1516 
L 2900 3500 
L 3475 3500 
L 3475 0 
L 2900 0 
L 2900 538 
Q 2691 219 2414 64 
Q 2138 -91 1772 -91 
Q 1169 -91 856 284 
Q 544 659 544 1381 
z
M 1991 3584 
L 1991 3584 
z
" transform="scale(0.015625)"/>
       <path id="DejaVuSans-2da" d="M 2075 4763 
Q 2075 4959 1937 5096 
Q 1800 5234 1600 5234 
Q 1397 5234 1261 5098 
Q 1125 4963 1125 4763 
Q 1125 4559 1261 4423 
Q 1397 4288 1600 4288 
Q 1800 4288 1937 4425 
Q 2075 4563 2075 4763 
z
M 2456 4763 
Q 2456 4403 2207 4153 
Q 1959 3903 1600 3903 
Q 1241 3903 992 4153 
Q 744 4403 744 4763 
Q 744 5122 992 5370 
Q 1241 5619 1600 5619 
Q 1959 5619 2207 5370 
Q 2456 5122 2456 4763 
z
" transform="scale(0.015625)"/>
       <path id="DejaVuSans-43" d="M 4122 4306 
L 4122 3641 
Q 3803 3938 3442 4084 
Q 3081 4231 2675 4231 
Q 1875 4231 1450 3742 
Q 1025 3253 1025 2328 
Q 1025 1406 1450 917 
Q 1875 428 2675 428 
Q 3081 428 3442 575 
Q 3803 722 4122 1019 
L 4122 359 
Q 3791 134 3420 21 
Q 3050 -91 2638 -91 
Q 1578 -91 968 557 
Q 359 1206 359 2328 
Q 359 3453 968 4101 
Q 1578 4750 2638 4750 
Q 3056 4750 3426 4639 
Q 3797 4528 4122 4306 
z
" transform="scale(0.015625)"/>
      </defs>
      <use xlink:href="#DejaVuSans-54"/>
      <use xlink:href="#DejaVuSans-65" x="44.083984"/>
      <use xlink:href="#DejaVuSans-6d" x="105.607422"/>
      <use xlink:href="#DejaVuSans-70" x="203.019531"/>
      <use xlink:href="#DejaVuSans-65" x="266.496094"/>
      <use xlink:href="#DejaVuSans-72" x="328.019531"/>
      <use xlink:href="#DejaVuSans-61" x="369.132812"/>
      <use xlink:href="#DejaVuSans-74" x="430.412109"/>
      <use xlink:href="#DejaVuSans-75" x="469.621094"/>
      <use xlink:href="#DejaVuSans-72" x="533"/>
      <use xlink:href="#DejaVuSans-65" x="571.863281"/>
      <use xlink:href="#DejaVuSans-20" x="633.386719"/>
      <use xlink:href="#DejaVuSans-5b" x="665.173828"/>
      <use xlink:href="#DejaVuSans-2da" x="704.1875"/>
      <use xlink:href="#DejaVuSans-43" x="754.1875"/>
      <use xlink:href="#DejaVuSans-5d" x="824.011719"/>
     </g>
    </g>
   </g>
   <g id="line2d_13">
    <path d="M 79.405824 383.396175 
L 81.130724 387.680382 
L 82.754159 391.127666 
L 84.225397 393.749638 
L 85.59517 395.753447 
L 86.863479 397.227485 
L 88.030323 398.256394 
L 89.146434 398.944995 
L 90.161081 399.318991 
L 91.124996 399.451349 
L 92.08891 399.36623 
L 93.052825 399.063698 
L 94.067472 398.510779 
L 95.132851 397.672277 
L 96.299695 396.452372 
L 97.517271 394.845905 
L 98.836312 392.725256 
L 100.256818 390.00535 
L 101.778788 386.59845 
L 103.452956 382.276089 
L 105.228588 377.05363 
L 107.156417 370.668295 
L 109.236443 362.984154 
L 111.519399 353.659497 
L 114.005284 342.529843 
L 116.74483 329.207906 
L 119.839504 313.011991 
L 123.4415 292.931379 
L 128.108876 265.566313 
L 140.994892 189.303637 
L 144.647621 169.418361 
L 147.742294 153.753964 
L 150.481841 140.987769 
L 152.967726 130.426105 
L 155.250681 121.671722 
L 157.330707 114.543769 
L 159.258536 108.70178 
L 161.034169 104.000746 
L 162.708336 100.186112 
L 164.230306 97.25247 
L 165.650812 94.982784 
L 166.969853 93.286308 
L 168.187429 92.075608 
L 169.303541 91.267758 
L 170.36892 90.767457 
L 171.383567 90.53766 
L 172.347482 90.54255 
L 173.311396 90.764852 
L 174.326043 91.233315 
L 175.391422 91.983132 
L 176.507534 93.050553 
L 177.72511 94.54151 
L 178.993419 96.453173 
L 180.363192 98.923204 
L 181.83443 102.037022 
L 183.457865 106.01441 
L 185.182765 110.845023 
L 187.059862 116.783942 
L 189.089156 123.967378 
L 191.270647 132.522348 
L 193.655067 142.787208 
L 196.293149 155.15018 
L 199.235625 170.028048 
L 202.685425 188.672466 
L 206.946942 213.005095 
L 215.520708 263.663282 
L 220.695407 293.397157 
L 224.398869 313.435269 
L 227.544274 329.277112 
L 230.334553 342.217647 
L 232.820438 352.73274 
L 235.103394 361.457822 
L 237.18342 368.569171 
L 239.111249 374.403413 
L 240.886881 379.103033 
L 242.561048 382.920697 
L 244.083019 385.860233 
L 245.503525 388.137684 
L 246.822566 389.84297 
L 248.040142 391.062888 
L 249.156253 391.879877 
L 250.221633 392.389331 
L 251.23628 392.628072 
L 252.200194 392.631747 
L 253.164109 392.417946 
L 254.178756 391.958221 
L 255.244135 391.217185 
L 256.360247 390.158346 
L 257.577823 388.675804 
L 258.846132 386.771591 
L 260.215905 384.307773 
L 261.687143 381.198119 
L 263.310578 377.221808 
L 265.035478 372.387691 
L 266.912575 366.438772 
L 268.941868 359.23637 
L 271.123359 350.650486 
L 273.50778 340.338074 
L 276.145862 327.904174 
L 279.088338 312.922577 
L 282.487405 294.405686 
L 286.647457 270.43487 
L 293.547056 229.125586 
L 299.939332 191.370942 
L 303.896455 169.307325 
L 307.143325 152.404596 
L 310.035069 138.499282 
L 312.622418 127.126184 
L 314.956106 117.833865 
L 317.086865 110.217338 
L 319.065426 103.933989 
L 320.891791 98.841606 
L 322.565958 94.792998 
L 324.138661 91.545269 
L 325.609899 89.005235 
L 326.92894 87.144337 
L 328.197248 85.730947 
L 329.364092 84.759089 
L 330.429472 84.148353 
L 331.444119 83.813122 
L 332.408033 83.717771 
L 333.371948 83.839901 
L 334.386595 84.20315 
L 335.401242 84.806473 
L 336.466621 85.697223 
L 337.633465 86.973267 
L 338.901773 88.713381 
L 340.220814 90.90863 
L 341.64132 93.705523 
L 343.214023 97.315099 
L 344.88819 101.734715 
L 346.714555 107.212618 
L 348.693116 113.887876 
L 350.823875 121.892779 
L 353.157563 131.565827 
L 355.69418 143.06124 
L 358.535191 157.011465 
L 361.731329 173.853668 
L 365.586987 195.422925 
L 370.964616 226.899344 
L 380.096438 280.397894 
L 384.053561 302.159536 
L 387.300432 318.823658 
L 390.141443 332.292952 
L 392.728793 343.507366 
L 395.06248 352.661911 
L 397.193239 360.156641 
L 399.1718 366.329941 
L 400.998165 371.323041 
L 402.672332 375.282331 
L 404.245035 378.447422 
L 405.665541 380.834235 
L 406.984582 382.642526 
L 408.202158 383.958523 
L 409.369002 384.898539 
L 410.434381 385.480514 
L 411.449028 385.788528 
L 412.412943 385.858097 
L 413.376857 385.710176 
L 414.391504 385.31968 
L 415.406151 384.688918 
L 416.522263 383.718691 
L 417.689107 382.396645 
L 418.957415 380.605945 
L 420.327189 378.263017 
L 421.798427 375.280847 
L 423.371129 371.570413 
L 425.045297 367.042438 
L 426.871661 361.444994 
L 428.850223 354.63846 
L 430.980981 346.489879 
L 433.314669 336.656435 
L 435.851287 324.982728 
L 438.692298 310.827499 
L 441.939168 293.467791 
L 445.794826 271.585409 
L 451.223187 239.357331 
L 460.405742 184.795803 
L 464.362865 162.718814 
L 467.660468 145.547286 
L 470.552211 131.647013 
L 473.139561 120.279039 
L 475.473249 110.991792 
L 477.604007 103.380232 
L 479.582569 97.101752 
L 481.408933 92.014057 
L 483.083101 87.969888 
L 484.655803 84.726437 
L 486.127041 82.190482 
L 487.446082 80.333294 
L 488.714391 78.92351 
L 489.881235 77.954994 
L 490.946614 77.347324 
L 491.961261 77.015022 
L 492.925176 76.922457 
L 493.88909 77.04737 
L 494.903737 77.413545 
L 495.918384 78.019784 
L 496.983763 78.913578 
L 498.150607 80.192932 
L 499.418916 81.936607 
L 500.737957 84.135509 
L 502.158463 86.936267 
L 503.731165 90.550025 
L 505.405333 94.973964 
L 507.231697 100.456409 
L 509.210259 107.136357 
L 511.341017 115.146013 
L 513.674705 124.823872 
L 516.211323 136.324001 
L 519.052334 150.278818 
L 522.299204 167.401106 
L 526.154862 188.989159 
L 531.583223 220.778787 
L 540.562849 273.385017 
L 544.519972 295.159907 
L 547.766842 311.838598 
L 550.607853 325.323179 
L 553.195203 336.553411 
L 555.528891 345.723636 
L 557.659649 353.233737 
L 559.638211 359.422117 
L 561.464575 364.429744 
L 563.138743 368.4028 
L 564.711445 371.581158 
L 566.131951 373.980191 
L 567.450992 375.799997 
L 568.668568 377.126739 
L 569.835412 378.077133 
L 570.900792 378.668635 
L 571.915438 378.985751 
L 572.879353 379.06398 
L 573.843268 378.92472 
L 574.857915 378.543327 
L 575.872561 377.921641 
L 576.988673 376.961348 
L 578.155517 375.649614 
L 579.423826 373.87001 
L 580.793599 371.538904 
L 582.264837 368.569208 
L 583.83754 364.871805 
L 585.511707 360.357306 
L 586.678551 356.867842 
L 586.678551 356.867842 
" clip-path="url(#pdb8bb96730)" style="fill: none; stroke: #ff7f0e; stroke-width: 3; stroke-linecap: square"/>
   </g>
   <g id="patch_3">
    <path d="M 54.042188 460.845375 
L 54.042188 25.965375 
" style="fill: none; stroke: #000000; stroke-width: 0.8; stroke-linejoin: miter; stroke-linecap: square"/>
   </g>
   <g id="patch_4">
    <path d="M 612.042187 460.845375 
L 612.042187 25.965375 
" style="fill: none; stroke: #000000; stroke-width: 0.8; stroke-linejoin: miter; stroke-linecap: square"/>
   </g>
   <g id="patch_5">
    <path d="M 54.042188 460.845375 
L 612.042187 460.845375 
" style="fill: none; stroke: #000000; stroke-width: 0.8; stroke-linejoin: miter; stroke-linecap: square"/>
   </g>
   <g id="patch_6">
    <path d="M 54.042188 25.965375 
L 612.042187 25.965375 
" style="fill: none; stroke: #000000; stroke-width: 0.8; stroke-linejoin: miter; stroke-linecap: square"/>
   </g>
   <g id="text_15">
    <!-- Temperature data -->
    <g transform="translate(258.24675 19.965375)scale(0.168 -0.168)">
     <use xlink:href="#DejaVuSans-54"/>
     <use xlink:href="#DejaVuSans-65" x="44.083984"/>
     <use xlink:href="#DejaVuSans-6d" x="105.607422"/>
     <use xlink:href="#DejaVuSans-70" x="203.019531"/>
     <use xlink:href="#DejaVuSans-65" x="266.496094"/>
     <use xlink:href="#DejaVuSans-72" x="328.019531"/>
     <use xlink:href="#DejaVuSans-61" x="369.132812"/>
     <use xlink:href="#DejaVuSans-74" x="430.412109"/>
     <use xlink:href="#DejaVuSans-75" x="469.621094"/>
     <use xlink:href="#DejaVuSans-72" x="533"/>
     <use xlink:href="#DejaVuSans-65" x="571.863281"/>
     <use xlink:href="#DejaVuSans-20" x="633.386719"/>
     <use xlink:href="#DejaVuSans-64" x="665.173828"/>
     <use xlink:href="#DejaVuSans-61" x="728.650391"/>
     <use xlink:href="#DejaVuSans-74" x="789.929688"/>
     <use xlink:href="#DejaVuSans-61" x="829.138672"/>
    </g>
   </g>
   <g id="legend_1">
    <g id="patch_7">
     <path d="M 444.117188 453.345375 
L 601.542187 453.345375 
Q 604.542187 453.345375 604.542187 450.345375 
L 604.542187 407.811 
Q 604.542187 404.811 601.542187 404.811 
L 444.117188 404.811 
Q 441.117188 404.811 441.117188 407.811 
L 441.117188 450.345375 
Q 441.117188 453.345375 444.117188 453.345375 
z
" style="fill: #ffffff; opacity: 0.8; stroke: #cccccc; stroke-linejoin: miter"/>
    </g>
    <g id="PathCollection_2">
     <g>
      <use xlink:href="#m23254a64e9" x="462.117188" y="418.271156" style="fill: #1f77b4; stroke: #1f77b4"/>
     </g>
    </g>
    <g id="text_16">
     <!-- Raw Data -->
     <g transform="translate(489.117188 422.208656)scale(0.15 -0.15)">
      <defs>
       <path id="DejaVuSans-52" d="M 2841 2188 
Q 3044 2119 3236 1894 
Q 3428 1669 3622 1275 
L 4263 0 
L 3584 0 
L 2988 1197 
Q 2756 1666 2539 1819 
Q 2322 1972 1947 1972 
L 1259 1972 
L 1259 0 
L 628 0 
L 628 4666 
L 2053 4666 
Q 2853 4666 3247 4331 
Q 3641 3997 3641 3322 
Q 3641 2881 3436 2590 
Q 3231 2300 2841 2188 
z
M 1259 4147 
L 1259 2491 
L 2053 2491 
Q 2509 2491 2742 2702 
Q 2975 2913 2975 3322 
Q 2975 3731 2742 3939 
Q 2509 4147 2053 4147 
L 1259 4147 
z
" transform="scale(0.015625)"/>
       <path id="DejaVuSans-77" d="M 269 3500 
L 844 3500 
L 1563 769 
L 2278 3500 
L 2956 3500 
L 3675 769 
L 4391 3500 
L 4966 3500 
L 4050 0 
L 3372 0 
L 2619 2869 
L 1863 0 
L 1184 0 
L 269 3500 
z
" transform="scale(0.015625)"/>
       <path id="DejaVuSans-44" d="M 1259 4147 
L 1259 519 
L 2022 519 
Q 2988 519 3436 956 
Q 3884 1394 3884 2338 
Q 3884 3275 3436 3711 
Q 2988 4147 2022 4147 
L 1259 4147 
z
M 628 4666 
L 1925 4666 
Q 3281 4666 3915 4102 
Q 4550 3538 4550 2338 
Q 4550 1131 3912 565 
Q 3275 0 1925 0 
L 628 0 
L 628 4666 
z
" transform="scale(0.015625)"/>
      </defs>
      <use xlink:href="#DejaVuSans-52"/>
      <use xlink:href="#DejaVuSans-61" x="67.232422"/>
      <use xlink:href="#DejaVuSans-77" x="128.511719"/>
      <use xlink:href="#DejaVuSans-20" x="210.298828"/>
      <use xlink:href="#DejaVuSans-44" x="242.085938"/>
      <use xlink:href="#DejaVuSans-61" x="319.087891"/>
      <use xlink:href="#DejaVuSans-74" x="380.367188"/>
      <use xlink:href="#DejaVuSans-61" x="419.576172"/>
     </g>
    </g>
    <g id="line2d_14">
     <path d="M 447.117188 438.975844 
L 462.117188 438.975844 
L 477.117188 438.975844 
" style="fill: none; stroke: #ff7f0e; stroke-width: 3; stroke-linecap: square"/>
    </g>
    <g id="text_17">
     <!-- Approximation -->
     <g transform="translate(489.117188 444.225844)scale(0.15 -0.15)">
      <defs>
       <path id="DejaVuSans-41" d="M 2188 4044 
L 1331 1722 
L 3047 1722 
L 2188 4044 
z
M 1831 4666 
L 2547 4666 
L 4325 0 
L 3669 0 
L 3244 1197 
L 1141 1197 
L 716 0 
L 50 0 
L 1831 4666 
z
" transform="scale(0.015625)"/>
       <path id="DejaVuSans-6f" d="M 1959 3097 
Q 1497 3097 1228 2736 
Q 959 2375 959 1747 
Q 959 1119 1226 758 
Q 1494 397 1959 397 
Q 2419 397 2687 759 
Q 2956 1122 2956 1747 
Q 2956 2369 2687 2733 
Q 2419 3097 1959 3097 
z
M 1959 3584 
Q 2709 3584 3137 3096 
Q 3566 2609 3566 1747 
Q 3566 888 3137 398 
Q 2709 -91 1959 -91 
Q 1206 -91 779 398 
Q 353 888 353 1747 
Q 353 2609 779 3096 
Q 1206 3584 1959 3584 
z
" transform="scale(0.015625)"/>
       <path id="DejaVuSans-78" d="M 3513 3500 
L 2247 1797 
L 3578 0 
L 2900 0 
L 1881 1375 
L 863 0 
L 184 0 
L 1544 1831 
L 300 3500 
L 978 3500 
L 1906 2253 
L 2834 3500 
L 3513 3500 
z
" transform="scale(0.015625)"/>
       <path id="DejaVuSans-6e" d="M 3513 2113 
L 3513 0 
L 2938 0 
L 2938 2094 
Q 2938 2591 2744 2837 
Q 2550 3084 2163 3084 
Q 1697 3084 1428 2787 
Q 1159 2491 1159 1978 
L 1159 0 
L 581 0 
L 581 3500 
L 1159 3500 
L 1159 2956 
Q 1366 3272 1645 3428 
Q 1925 3584 2291 3584 
Q 2894 3584 3203 3211 
Q 3513 2838 3513 2113 
z
" transform="scale(0.015625)"/>
      </defs>
      <use xlink:href="#DejaVuSans-41"/>
      <use xlink:href="#DejaVuSans-70" x="68.408203"/>
      <use xlink:href="#DejaVuSans-70" x="131.884766"/>
      <use xlink:href="#DejaVuSans-72" x="195.361328"/>
      <use xlink:href="#DejaVuSans-6f" x="234.224609"/>
      <use xlink:href="#DejaVuSans-78" x="292.28125"/>
      <use xlink:href="#DejaVuSans-69" x="351.460938"/>
      <use xlink:href="#DejaVuSans-6d" x="379.244141"/>
      <use xlink:href="#DejaVuSans-61" x="476.65625"/>
      <use xlink:href="#DejaVuSans-74" x="537.935547"/>
      <use xlink:href="#DejaVuSans-69" x="577.144531"/>
      <use xlink:href="#DejaVuSans-6f" x="604.927734"/>
      <use xlink:href="#DejaVuSans-6e" x="666.109375"/>
     </g>
    </g>
   </g>
  </g>
 </g>
 <defs>
  <clipPath id="pdb8bb96730">
   <rect x="54.042188" y="25.965375" width="558" height="434.88"/>
  </clipPath>
 </defs>
</svg>
